  0
SECTION
  2
BLOCKS
  0
ENDSEC
  0
SECTION
  2
ENTITIES
  0
LINE
  8
0
 10
0
 11
1.093
 20
50
 21
60.396
  0
LINE
  8
0
 10
1.093
 11
4.323
 20
60.396
 21
70.337
  0
LINE
  8
0
 10
4.323
 11
9.549
 20
70.337
 21
79.389
  0
LINE
  8
0
 10
9.549
 11
16.543
 20
79.389
 21
87.157
  0
LINE
  8
0
 10
16.543
 11
25
 20
87.157
 21
93.301
  0
LINE
  8
0
 10
25
 11
34.549
 20
93.301
 21
97.553
  0
LINE
  8
0
 10
34.549
 11
44.774
 20
97.553
 21
99.726
  0
LINE
  8
0
 10
44.774
 11
55.226
 20
99.726
 21
99.726
  0
LINE
  8
0
 10
55.226
 11
65.451
 20
99.726
 21
97.553
  0
LINE
  8
0
 10
65.451
 11
75
 20
97.553
 21
93.301
  0
LINE
  8
0
 10
75
 11
83.457
 20
93.301
 21
87.157
  0
LINE
  8
0
 10
83.457
 11
90.451
 20
87.157
 21
79.389
  0
LINE
  8
0
 10
90.451
 11
95.677
 20
79.389
 21
70.337
  0
LINE
  8
0
 10
95.677
 11
98.907
 20
70.337
 21
60.396
  0
LINE
  8
0
 10
98.907
 11
100
 20
60.396
 21
50
  0
LINE
  8
0
 10
100
 11
98.907
 20
50
 21
39.604
  0
LINE
  8
0
 10
98.907
 11
95.677
 20
39.604
 21
29.663
  0
LINE
  8
0
 10
95.677
 11
90.451
 20
29.663
 21
20.611
  0
LINE
  8
0
 10
90.451
 11
83.457
 20
20.611
 21
12.843
  0
LINE
  8
0
 10
83.457
 11
75
 20
12.843
 21
6.699
  0
LINE
  8
0
 10
75
 11
65.451
 20
6.699
 21
2.447
  0
LINE
  8
0
 10
65.451
 11
55.226
 20
2.447
 21
0.274
  0
LINE
  8
0
 10
55.226
 11
44.774
 20
0.274
 21
0.274
  0
LINE
  8
0
 10
44.774
 11
34.549
 20
0.274
 21
2.447
  0
LINE
  8
0
 10
34.549
 11
25
 20
2.447
 21
6.699
  0
LINE
  8
0
 10
25
 11
16.543
 20
6.699
 21
12.843
  0
LINE
  8
0
 10
16.543
 11
9.549
 20
12.843
 21
20.611
  0
LINE
  8
0
 10
9.549
 11
4.323
 20
20.611
 21
29.663
  0
LINE
  8
0
 10
4.323
 11
1.093
 20
29.663
 21
39.604
  0
LINE
  8
0
 10
1.093
 11
0
 20
39.604
 21
50
  0
ENDSEC
  0
SECTION
  2
OBJECTS
  0
DICTIONARY
  0
ENDSEC
  0
EOF
