<?xml version="1.0" encoding="UTF-8" standalone="no"?>
<!-- Created with Inkscape (http://www.inkscape.org/) -->

<svg
   xmlns:dc="http://purl.org/dc/elements/1.1/"
   xmlns:cc="http://creativecommons.org/ns#"
   xmlns:rdf="http://www.w3.org/1999/02/22-rdf-syntax-ns#"
   xmlns:svg="http://www.w3.org/2000/svg"
   xmlns="http://www.w3.org/2000/svg"
   xmlns:sodipodi="http://sodipodi.sourceforge.net/DTD/sodipodi-0.dtd"
   xmlns:inkscape="http://www.inkscape.org/namespaces/inkscape"
   id="svg2985"
   version="1.1"
   inkscape:version="0.48.5 r10040"
   width="4212.9922"
   height="2979.9211"
   sodipodi:docname="merlin-lg.svg">
  <metadata
     id="metadata2991">
    <rdf:RDF>
      <cc:Work
         rdf:about="">
        <dc:format>image/svg+xml</dc:format>
        <dc:type
           rdf:resource="http://purl.org/dc/dcmitype/StillImage" />
        <dc:title></dc:title>
      </cc:Work>
    </rdf:RDF>
  </metadata>
  <defs
     id="defs2989" />
  <sodipodi:namedview
     pagecolor="#ffffff"
     bordercolor="#666666"
     borderopacity="1"
     objecttolerance="10"
     gridtolerance="10"
     guidetolerance="10"
     inkscape:pageopacity="0"
     inkscape:pageshadow="2"
     inkscape:window-width="1920"
     inkscape:window-height="988"
     id="namedview2987"
     showgrid="false"
     inkscape:zoom="0.97035431"
     inkscape:cx="206.33473"
     inkscape:cy="299.37471"
     inkscape:window-x="0"
     inkscape:window-y="27"
     inkscape:window-maximized="1"
     inkscape:current-layer="svg2985" />
  <path
     style="fill:#000000"
     d="m 251.79312,2764.9563 c 3.90655,1.6635 10.58173,10.2338 11.52028,13.6825 3.50252,2.755 8.12833,17.4785 2.386,18.5339 -14.92173,-3.6517 -20.5019,19.2323 -4.11455,20.9167 11.7744,8.783 31.08748,12.2989 34.37917,28.8314 2.77171,18.4087 -12.15982,30.7132 -19.8675,45.7484 -15.91762,24.0558 -34.43307,46.8527 -56.58427,65.3743 -5.24319,0.3148 -3.31094,-2.6627 -5.9146,-4.0286 -5.38868,3.4769 -13.57171,17.2831 -19.4564,13.9496 l 10e-6,0 c -4.60839,-1.95 4.37296,-13.3852 -3.17833,-5.1433 -8.83499,10.29 -10.93449,-0.4549 -7.089,-6.2863 -14.54918,-0.4942 -3.17324,-11.3553 2.04872,-16.191 -6.91037,6.727 -15.69717,1.701 -8.63078,-5.5273 8.93227,-14.9506 30.38575,-24.747 28.6714,-44.0971 5.27991,-15.622 -0.75936,-29.875 -14.01781,-39.4371 -9.80466,-9.5456 -20.82594,-24.4061 -36.49937,-19.2488 -6.52867,1.1384 -13.73239,0.7264 -18.301,6.367 -9.90523,7.7233 -19.01772,16.4304 -30.21901,22.302 6.48416,-1.6662 -12.061972,8.9143 -11.297902,14.9177 -14.827907,10.0882 -28.371414,-12.3724 -40.934015,-18.9289 -7.725407,-12.0585 -22.782299,-21.2649 -23.279516,-36.9114 -5.689016,-16.0703 -6.828922,-33.896 -6.247053,-50.9708 8.985813,-11.2717 26.61752,1.2203 38.860365,1.5974 20.990451,6.1423 33.387163,-3.4437 55.980941,-5.9372 l 2.81089,-3.2323 c 2.11852,-17.1965 4.46244,-23.1675 2.21173,-39.9204 -2.76431,-14.8541 -12.93782,-26.4418 -25.567045,-34.0832 -12.079209,-9.0225 -26.016973,-15.553 -41.010101,-17.1503 -14.263252,-4.4947 -14.275589,-9.9274 -26.199118,-19.1858 -12.197525,-9.4712 10.4695,-11.9175 5.392492,-14.0477 -14.098683,-5.628 -9.76628,-17.082 0.843815,-12.1351 8.280767,2.4092 19.471077,3.2027 7.28656,-5.755 12.547867,-5.0663 30.170876,8.4624 44.828996,9.7927 25.937241,7.9938 51.661211,17.2878 75.650831,29.9478 20.66421,4.6669 34.55672,22.3405 47.14911,38.016 4.44303,8.4218 2.2278,17.8231 2.01979,26.8826 0.0469,13.2531 -12.34268,23.7039 9.06677,29.7589 0,0 9.48201,4.298 14.48673,5.8529 5.56752,1.7299 12.81277,5.7458 12.81277,5.7458 z m -24.84413,1.6051 c -16.03875,-2.8396 -13.58573,-8.8995 -28.85793,0.01 -10.73412,3.1928 -19.63574,0.3421 -24.28864,4.3772 -10.82572,2.6006 -30.67119,4.5117 -35.76041,3.1576 -4.83715,2.4826 -12.42884,-2.5982 -15.77026,2.3978 -2.57765,19.6667 -29.499432,11.532 -10.52348,22.4338 17.23124,3.1372 -17.639924,15.9671 1.21045,12.9005 12.86567,-7.3985 15.49971,18.684 28.43269,6.4189 13.80341,-3.277 27.60725,-4.6357 41.88924,-5.6671 12.65646,-3.7995 23.40638,-7.1843 32.00587,-17.1407 10.85722,-1.8793 34.34648,1.0832 23.70708,-16.6691 -2.37641,-8.9254 -0.14173,-0.064 -1.1696,-6.7967 1.22887,-3.895 -1.50213,-5.6455 -3.01085,-5.5537 -5.25697,0.4104 -7.86416,0.1377 -7.86416,0.1377 z"
     id="path2997"
     inkscape:connector-curvature="0"
     sodipodi:nodetypes="cccccccccccccccccccccccccccccsccccccccscccccccccccccccc" />
  <rect
     style="fill:none;stroke:#000000;stroke-width:13.60230923;stroke-linecap:round;stroke-linejoin:round;stroke-miterlimit:4;stroke-opacity:1;stroke-dasharray:none"
     id="rect3112"
     width="301.39771"
     height="359.81467"
     x="5.1486912"
     y="2613.5574" />
</svg>
