<?xml version="1.0" encoding="UTF-8" standalone="no"?>
<!-- Created with Inkscape (http://www.inkscape.org/) -->

<svg
   xmlns:dc="http://purl.org/dc/elements/1.1/"
   xmlns:cc="http://creativecommons.org/ns#"
   xmlns:rdf="http://www.w3.org/1999/02/22-rdf-syntax-ns#"
   xmlns:svg="http://www.w3.org/2000/svg"
   xmlns="http://www.w3.org/2000/svg"
   xmlns:sodipodi="http://sodipodi.sourceforge.net/DTD/sodipodi-0.dtd"
   xmlns:inkscape="http://www.inkscape.org/namespaces/inkscape"
   id="svg2985"
   version="1.1"
   inkscape:version="0.48.5 r10040"
   width="425"
   height="316"
   sodipodi:docname="merlin_7.jpg">
  <metadata
     id="metadata2991">
    <rdf:RDF>
      <cc:Work
         rdf:about="">
        <dc:format>image/svg+xml</dc:format>
        <dc:type
           rdf:resource="http://purl.org/dc/dcmitype/StillImage" />
        <dc:title></dc:title>
      </cc:Work>
    </rdf:RDF>
  </metadata>
  <defs
     id="defs2989" />
  <sodipodi:namedview
     pagecolor="#ffffff"
     bordercolor="#666666"
     borderopacity="1"
     objecttolerance="10"
     gridtolerance="10"
     guidetolerance="10"
     inkscape:pageopacity="0"
     inkscape:pageshadow="2"
     inkscape:window-width="1920"
     inkscape:window-height="988"
     id="namedview2987"
     showgrid="false"
     inkscape:zoom="1.4281381"
     inkscape:cx="36.121056"
     inkscape:cy="165.94206"
     inkscape:window-x="0"
     inkscape:window-y="27"
     inkscape:window-maximized="1"
     inkscape:current-layer="svg2985" />
  <path
     style="fill:#000000"
     d="m 207.17455,138.15387 c 3.07833,1.31081 6.06151,4.70314 6.80109,7.42076 2.75996,2.17086 7.59768,16.04963 0.57912,12.86984 -11.75821,-2.87754 -14.85431,16.88963 -1.9412,18.21687 9.27813,6.92088 24.49669,9.69146 27.09052,22.71891 2.18408,14.50589 -10.23236,25.06912 -16.30595,36.91676 -12.54297,18.95578 -27.133,36.91952 -44.58798,51.51447 -3.15582,-2.67929 3.13723,-10.98855 -4.01014,-4.04188 -4.24624,2.73973 -10.69441,13.61895 -15.3315,10.99222 l 1e-5,0 c 3.19903,-5.43971 3.44586,-10.54748 -2.5045,-4.05293 -6.9619,8.10845 -6.99001,-1.11736 -3.95979,-5.71247 -12.98252,3.29685 0.20998,-7.3216 -0.0119,-11.99949 -5.44531,5.30078 -9.22509,2.74983 -3.65683,-2.94603 7.03856,-11.78093 20.79959,-20.90985 19.44869,-36.15762 4.16054,-12.30996 -0.59837,-23.54123 -11.04593,-31.07608 -7.726,-7.52187 -16.41068,-19.2318 -28.76122,-15.16791 -5.14455,0.89707 -10.82102,0.57239 -14.42105,5.01711 -7.80525,6.08597 -14.985821,12.94701 -23.812354,17.57375 5.10947,-1.31284 -9.504736,7.02448 -8.902657,11.75514 C 70.156682,229.9447 59.4845,212.2459 49.585266,207.07941 43.497704,197.57742 31.632988,190.3229 31.241184,177.99346 c -4.482901,-12.66324 -5.381138,-26.7097 -4.92263,-40.16451 7.080752,-8.88206 20.974403,0.96152 30.621672,1.25868 16.540316,4.84009 26.308831,-2.71358 44.112554,-4.6785 l 2.21496,-2.54697 c 1.66938,-13.55065 3.51637,-18.25583 1.74283,-31.45692 C 102.83231,88.700233 94.815666,79.569208 84.863923,73.547861 75.345604,66.438205 64.362759,61.292223 52.548284,60.033676 41.308949,56.491781 39.609411,41.959336 28.325743,38.193329 c -13.24245,-6.039754 6.840436,-5.813085 2.839792,-7.491635 -11.109655,-4.434825 -3.792661,-10.09946 4.568013,-6.201365 6.525181,1.898406 16.427253,2.306901 6.825946,-4.751715 9.887624,-3.992242 23.774418,6.668301 35.32491,7.716538 20.438345,6.299029 40.708636,13.622679 59.612276,23.598591 16.28324,3.677502 27.23043,17.604221 37.15314,29.95634 3.50108,6.636352 1.7555,14.044457 1.59158,21.183317 0.0369,10.44336 -7.55755,26.59313 9.31293,31.36437 0,0 5.73704,-0.29943 9.35547,0.27533 4.53716,0.72069 12.26475,4.31077 12.26475,4.31077 z m -21.85379,-2.09622 c -12.63841,-2.23756 -10.70545,-7.01269 -22.73983,0.003 -8.45841,2.51586 -15.47281,0.26953 -19.13926,3.44918 -8.53059,2.04928 -24.16867,3.55524 -28.17893,2.48818 -3.81164,1.95631 -9.79384,-2.04742 -12.42685,1.88942 -2.03117,15.49723 -23.245326,9.08719 -8.292418,17.67771 13.578078,2.47203 -13.900132,12.58195 0.953824,10.16542 10.138044,-5.82993 12.213644,14.72292 22.404744,5.05809 10.87698,-2.58224 21.7543,-3.65291 33.0084,-4.46564 9.97319,-2.99394 18.44405,-5.66111 25.22038,-13.50665 8.55541,-1.48098 27.06477,0.85354 18.681,-13.13523 -1.87259,-7.03317 13.33231,-0.0502 2.22252,-6.22312 -0.32114,-8.56815 22.56977,11.92028 9.14979,3.3885 -2.6307,-2.61654 -2.8946,-4.75096 -3.89914,-5.31661 0,0 -2.18966,-0.70911 -4.58743,-1.58075 -3.90504,-1.41958 -12.3768,0.1085 -12.3768,0.1085 z"
     id="path2997"
     inkscape:connector-curvature="0"
     sodipodi:nodetypes="ccccccccccccccccccccccccccccccccccccccscccccccccccccccsc" />
  <rect
     style="fill:none;stroke:#000000;stroke-width:11.25000000000000000;stroke-linecap:round;stroke-linejoin:round;stroke-miterlimit:4;stroke-opacity:1;stroke-dasharray:none"
     id="rect3112"
     width="249.2756"
     height="297.59027"
     x="7.7023363"
     y="9.3069792" />
</svg>
