<?xml version="1.0" encoding="UTF-8" standalone="no"?>
<!-- Created with Inkscape (http://www.inkscape.org/) -->

<svg
   xmlns:dc="http://purl.org/dc/elements/1.1/"
   xmlns:cc="http://creativecommons.org/ns#"
   xmlns:rdf="http://www.w3.org/1999/02/22-rdf-syntax-ns#"
   xmlns:svg="http://www.w3.org/2000/svg"
   xmlns="http://www.w3.org/2000/svg"
   xmlns:sodipodi="http://sodipodi.sourceforge.net/DTD/sodipodi-0.dtd"
   xmlns:inkscape="http://www.inkscape.org/namespaces/inkscape"
   id="svg2985"
   version="1.1"
   inkscape:version="0.48.5 r10040"
   width="4212.9922"
   height="2979.9211"
   sodipodi:docname="merlin-med.svg">
  <metadata
     id="metadata2991">
    <rdf:RDF>
      <cc:Work
         rdf:about="">
        <dc:format>image/svg+xml</dc:format>
        <dc:type
           rdf:resource="http://purl.org/dc/dcmitype/StillImage" />
        <dc:title></dc:title>
      </cc:Work>
    </rdf:RDF>
  </metadata>
  <defs
     id="defs2989" />
  <sodipodi:namedview
     pagecolor="#ffffff"
     bordercolor="#666666"
     borderopacity="1"
     objecttolerance="10"
     gridtolerance="10"
     guidetolerance="10"
     inkscape:pageopacity="0"
     inkscape:pageshadow="2"
     inkscape:window-width="1920"
     inkscape:window-height="988"
     id="namedview2987"
     showgrid="false"
     inkscape:zoom="1.195"
     inkscape:cx="206.33473"
     inkscape:cy="207.29725"
     inkscape:window-x="0"
     inkscape:window-y="27"
     inkscape:window-maximized="1"
     inkscape:current-layer="svg2985" />
  <path
     style="fill:#000000"
     d="m 106.96707,2887.9374 c 1.67423,0.7129 4.53502,4.3859 4.93726,5.8639 1.50108,1.1807 3.48357,7.4908 1.02257,7.9431 -6.39503,-1.565 -8.78653,8.2424 -1.76338,8.9643 5.04617,3.7642 13.32321,5.271 14.73393,12.3563 1.18788,7.8895 -5.21135,13.1628 -8.51464,19.6065 -6.82184,10.3096 -14.75703,20.0797 -24.250401,28.0175 -2.247081,0.135 -1.418974,-1.1411 -2.534828,-1.7265 -2.309434,1.4901 -5.816447,7.407 -8.338457,5.9784 l 5e-6,0 c -1.975025,-0.8357 1.874125,-5.7365 -1.362142,-2.2043 -3.786424,4.41 -4.68621,-0.1949 -3.038143,-2.6941 -6.235362,-0.2118 -1.35996,-4.8666 0.878023,-6.939 -2.961587,2.883 -6.727358,0.729 -3.698905,-2.3688 3.828115,-6.4074 13.022463,-10.6059 12.287742,-18.8988 2.262818,-6.6951 -0.32544,-12.8036 -6.007633,-16.9016 -4.201997,-4.091 -8.925402,-10.4598 -15.642586,-8.2495 -2.798001,0.4879 -5.88531,0.3113 -7.843285,2.7287 -4.245099,3.31 -8.150451,7.0416 -12.951004,9.558 2.778926,-0.7141 -5.169416,3.8204 -4.841958,6.3933 -6.354817,4.3235 -12.159177,-5.3024 -17.543148,-8.1124 -3.310889,-5.1679 -9.763842,-9.1135 -9.976935,-15.8191 -2.43815,-6.8873 -2.926681,-14.5269 -2.6773086,-21.8447 3.8510626,-4.8307 11.4075076,0.523 16.6544416,0.6846 8.995907,2.6324 14.308783,-1.4758 23.991831,-2.5445 l 1.204667,-1.3853 c 0.907937,-7.3699 1.912474,-9.9289 0.947884,-17.1087 -1.184704,-6.366 -5.54478,-11.3322 -10.957305,-14.6071 -5.176803,-3.8668 -11.15013,-6.6656 -17.575756,-7.3501 -6.112822,-1.9263 -6.11811,-4.2546 -11.228193,-8.2225 -5.2275108,-4.0591 4.486928,-5.1075 2.311068,-6.0204 -6.0422929,-2.412 -4.185549,-7.3209 0.361635,-5.2008 3.5489,1.0325 8.344746,1.3726 3.122811,-2.4664 5.377657,-2.1713 12.930375,3.6267 19.212426,4.1968 11.11596,3.426 22.140518,7.4091 32.421783,12.8348 8.85609,2.0001 14.810022,9.5745 20.206761,16.2926 1.904155,3.6093 0.954771,7.6385 0.865624,11.5211 0.0201,5.6799 -5.28972,10.1588 3.885758,12.7538 0,0 4.063719,1.842 6.208598,2.5084 2.38608,0.7414 5.49119,2.4625 5.49119,2.4625 z"
     id="path2997"
     inkscape:connector-curvature="0"
     sodipodi:nodetypes="cccccccccccccccccccccccccccccsccccccccsc" />
  <rect
     style="fill:none;stroke:#000000;stroke-width:5.82956076;stroke-linecap:round;stroke-linejoin:round;stroke-miterlimit:4;stroke-opacity:1;stroke-dasharray:none"
     id="rect3112"
     width="129.17044"
     height="154.20628"
     x="1.2623169"
     y="2823.0522" />
</svg>
