<?xml version="1.0" encoding="UTF-8" standalone="no"?>
<!-- Created with Inkscape (http://www.inkscape.org/) -->

<svg
   xmlns:dc="http://purl.org/dc/elements/1.1/"
   xmlns:cc="http://creativecommons.org/ns#"
   xmlns:rdf="http://www.w3.org/1999/02/22-rdf-syntax-ns#"
   xmlns:svg="http://www.w3.org/2000/svg"
   xmlns="http://www.w3.org/2000/svg"
   xmlns:sodipodi="http://sodipodi.sourceforge.net/DTD/sodipodi-0.dtd"
   xmlns:inkscape="http://www.inkscape.org/namespaces/inkscape"
   id="svg2985"
   version="1.1"
   inkscape:version="0.48.5 r10040"
   width="4212.9922"
   height="2979.9211"
   sodipodi:docname="merlin-lg.svg">
  <metadata
     id="metadata2991">
    <rdf:RDF>
      <cc:Work
         rdf:about="">
        <dc:format>image/svg+xml</dc:format>
        <dc:type
           rdf:resource="http://purl.org/dc/dcmitype/StillImage" />
        <dc:title></dc:title>
      </cc:Work>
    </rdf:RDF>
  </metadata>
  <defs
     id="defs2989" />
  <sodipodi:namedview
     pagecolor="#ffffff"
     bordercolor="#666666"
     borderopacity="1"
     objecttolerance="10"
     gridtolerance="10"
     guidetolerance="10"
     inkscape:pageopacity="0"
     inkscape:pageshadow="2"
     inkscape:window-width="1920"
     inkscape:window-height="988"
     id="namedview2987"
     showgrid="false"
     inkscape:zoom="0.97035431"
     inkscape:cx="206.33473"
     inkscape:cy="299.37471"
     inkscape:window-x="0"
     inkscape:window-y="27"
     inkscape:window-maximized="1"
     inkscape:current-layer="svg2985" />
  <path
     style="fill:#000000"
     d="m 306.10289,2718.8384 c 4.74366,2.02 12.84924,12.4267 13.98891,16.6145 4.25306,3.3453 9.87012,21.2238 2.89729,22.5054 -18.11925,-4.4342 -24.89517,23.3535 -4.99624,25.3988 14.29748,10.6651 37.74908,14.9344 41.74613,35.0096 3.36565,22.3534 -14.76549,37.2946 -24.12482,55.5517 -19.32854,29.2105 -41.81158,56.8925 -68.70947,79.383 -6.36673,0.3823 -4.02043,-3.2332 -7.18201,-4.8918 -6.5434,4.2219 -16.47994,20.9866 -23.62563,16.9388 l 1e-5,0 c -5.5959,-2.3679 5.31002,-16.2535 -3.8594,-6.2455 -10.7282,12.495 -13.2776,-0.5524 -8.60807,-7.6333 -17.66687,-0.6001 -3.85323,-13.7886 2.48773,-19.6606 -8.39117,8.1685 -19.06085,2.0655 -10.48024,-6.7117 10.84633,-18.1543 36.89699,-30.0499 34.81528,-53.5465 6.41132,-18.9695 -0.92208,-36.2767 -17.02163,-47.8878 -11.90566,-11.5911 -25.28864,-29.636 -44.32066,-23.3736 -7.92768,1.3824 -16.67505,0.882 -22.22265,7.7314 -12.02778,9.3783 -23.09294,19.9511 -36.69451,27.0809 7.87362,-2.0232 -14.64668,10.8246 -13.71888,18.1144 -18.005316,12.25 -34.451003,-15.0236 -49.70559,-22.9851 -9.380851,-14.6424 -27.66422,-25.8216 -28.267984,-44.821 -6.908091,-19.5139 -8.292262,-41.1594 -7.585707,-61.8931 10.911344,-13.6871 32.321274,1.4818 47.187586,1.9397 25.488405,7.4585 40.541555,-4.1816 67.976855,-7.2095 l 3.41322,-3.9249 c 2.5725,-20.8814 5.41868,-28.1319 2.68568,-48.4747 -3.35667,-18.0372 -15.71021,-32.108 -31.0457,-41.3868 -14.66761,-10.9559 -31.592038,-18.8858 -49.797979,-20.8253 -17.319664,-5.4579 -17.334644,-12.0547 -31.813215,-23.2971 -14.81128,-11.5007 12.712964,-14.4713 6.548026,-17.0579 -17.11983,-6.834 -11.859054,-20.7424 1.024632,-14.7355 10.055217,2.9254 23.643451,3.889 8.847966,-6.9882 15.236696,-6.152 36.636064,10.2758 54.43521,11.8911 31.49522,9.7068 62.73147,20.9924 91.86172,36.3652 25.09226,5.6669 41.96173,27.1278 57.25249,46.1623 5.39511,10.2265 2.70519,21.6423 2.4526,32.6432 0.0569,16.093 -14.98753,28.7833 11.00966,36.1357 0,0 11.51386,5.2191 17.59103,7.1072 6.76056,2.1005 15.55836,6.977 15.55836,6.977 z m -30.16788,1.949 c -19.47562,-3.448 -16.49695,-10.8065 -35.04177,0.01 -13.03429,3.877 -23.84339,0.4154 -29.49334,5.3152 -13.14552,3.1579 -37.24359,5.4785 -43.42336,3.8342 -5.87368,3.0146 -15.09216,-3.155 -19.1496,2.9116 -3.13001,23.881 -35.82074,14.0032 -12.77851,27.2411 20.92364,3.8094 -21.41991,19.3886 1.46983,15.6648 15.6226,-8.9839 18.82107,22.6878 34.52541,7.7944 16.76128,-3.9792 33.52309,-5.629 50.86551,-6.8815 15.36855,-4.6136 28.42203,-8.7237 38.86426,-20.8136 13.18377,-2.2821 41.70645,1.3153 28.78717,-20.2411 -2.88564,-10.838 -0.1721,-0.078 -1.42023,-8.2532 1.49221,-4.7296 -1.82401,-6.8552 -3.65603,-6.7437 -6.38346,0.4983 -9.54934,0.1672 -9.54934,0.1672 z"
     id="path2997"
     inkscape:connector-curvature="0"
     sodipodi:nodetypes="cccccccccccccccccccccccccccccsccccccccscccccccccccccccc" />
  <rect
     style="fill:none;stroke:#000000;stroke-width:16.51708984;stroke-linecap:round;stroke-linejoin:round;stroke-miterlimit:4;stroke-opacity:1;stroke-dasharray:none"
     id="rect3112"
     width="365.98291"
     height="436.91782"
     x="6.6060815"
     y="2534.9968" />
</svg>
